<?xml version="1.0" standalone="no"?>
<!DOCTYPE svg PUBLIC "-//W3C//DTD SVG 1.1//EN" "http://www.w3.org/Graphics/SVG/1.1/DTD/svg11.dtd" >
<svg xmlns="http://www.w3.org/2000/svg">
<metadata>
Created by FontForge 20120731 at Wed Dec 21 17:17:49 2016
 By admin
</metadata>
<defs>
<font id="iconfont" horiz-adv-x="1024" >
  <font-face 
    font-family="iconfont"
    font-weight="500"
    font-stretch="normal"
    units-per-em="1024"
    panose-1="2 0 6 3 0 0 0 0 0 0"
    ascent="896"
    descent="-128"
    x-height="792"
    bbox="0 -210 1423 896"
    underline-thickness="0"
    underline-position="0"
    unicode-range="U+0078-E811"
  />
<missing-glyph 
 />
    <glyph glyph-name=".notdef" 
 />
    <glyph glyph-name=".notdef" 
 />
    <glyph glyph-name=".null" horiz-adv-x="0" 
 />
    <glyph glyph-name="nonmarkingreturn" horiz-adv-x="341" 
 />
    <glyph glyph-name="x" unicode="x" horiz-adv-x="1001" 
d="M281 543q-27 -1 -53 -1h-83q-18 0 -36.5 -6t-32.5 -18.5t-23 -32t-9 -45.5v-76h912v41q0 16 -0.5 30t-0.5 18q0 13 -5 29t-17 29.5t-31.5 22.5t-49.5 9h-133v-97h-438v97zM955 310v-52q0 -23 0.5 -52t0.5 -58t-10.5 -47.5t-26 -30t-33 -16t-31.5 -4.5q-14 -1 -29.5 -0.5
t-29.5 0.5h-32l-45 128h-439l-44 -128h-29h-34q-20 0 -45 1q-25 0 -41 9.5t-25.5 23t-13.5 29.5t-4 30v167h911zM163 247q-12 0 -21 -8.5t-9 -21.5t9 -21.5t21 -8.5q13 0 22 8.5t9 21.5t-9 21.5t-22 8.5zM316 123q-8 -26 -14 -48q-5 -19 -10.5 -37t-7.5 -25t-3 -15t1 -14.5
t9.5 -10.5t21.5 -4h37h67h81h80h64h36q23 0 34 12t2 38q-5 13 -9.5 30.5t-9.5 34.5q-5 19 -11 39h-368zM336 498v228q0 11 2.5 23t10 21.5t20.5 15.5t34 6h188q31 0 51.5 -14.5t20.5 -52.5v-227h-327z" />
    <glyph glyph-name="sousuo" unicode="&#xe600;" 
d="M894 -7l-239 242q73 77 73 205t-86.5 217t-212.5 89t-215 -90t-89 -216q0 -127 88 -213.5t214 -86.5q115 0 188 57l241 -244q7 -6 16 -6t20 11q7 7 8 17.5t-6 17.5zM173 443.5q0 105.5 74 180t178.5 74.5t178.5 -74.5t74 -180t-74 -180t-178.5 -74.5t-178.5 74.5t-74 180
z" />
    <glyph glyph-name="yszm" unicode="&#xe60e;" 
d="M382 -74h-2q-13 1 -21.5 10.5t-8.5 22.5q2 25 4.5 50.5t10 66.5t18 73t29 60t42.5 37q49 18 100 -34l13 -14q28 -29 34 -30q14 4 84 105q47 68 88.5 104.5t84.5 30.5q66 -9 107 -125q4 -12 -2 -23.5t-18 -16t-23.5 1.5t-16.5 18q-27 80 -55 83q-35 4 -114 -109
q-51 -75 -78 -102t-53 -30q-16 -1 -31 6.5t-24.5 16t-27.5 27.5l-13 13q-23 23 -33 20q-22 -9 -40.5 -80.5t-22.5 -151.5q-1 -12 -10 -21t-21 -9v0zM513 264q-35 0 -60 25t-25 60.5t25 60.5t60 25t60 -25t25 -60.5t-25 -60.5t-60 -25zM513 393q-18 0 -30.5 -13t-12.5 -30.5
t12.5 -30.5t30.5 -13t31 13t13 30.5t-13 30.5t-31 13zM501 -113q-99 0 -188.5 38.5t-154.5 103.5t-104 154.5t-38.5 188.5t39 188.5t103.5 154.5t154.5 103.5t188 38.5t188.5 -38.5t155 -103.5t103.5 -154.5t38.5 -188.5q0 -120 -56 -226.5t-155 -174.5q-14 -9 -30.5 -6
t-26 17t-6 30t16.5 26q83 56 130 145t47 189q0 110 -54.5 203t-147.5 147.5t-203 54.5t-203 -54.5t-147.5 -147.5t-54.5 -203t54.5 -203t147.5 -147.5t203 -54.5q17 0 28.5 -11.5t11.5 -28.5t-11.5 -28.5t-28.5 -11.5zM204 176q-7 0 -13 5t-7 12l-67 430q-2 9 4.5 16.5
t16.5 7.5h627q9 0 15 -6t6 -15t-6 -15t-15 -6h-603l63 -405q1 -9 -4 -16t-14 -8h-3zM310 -61q-11 0 -20 7.5t-11 18.5l-82 576q-2 15 7.5 25.5t23.5 10.5h690q13 0 22.5 -9t9.5 -22t-9.5 -22t-22.5 -9h-654l77 -541q2 -13 -6 -23t-20 -12h-5z" />
    <glyph glyph-name="pjbz" unicode="&#xe60f;" 
d="M959 279q1 2 1 3v0.5v0.5v0.5v0.5q0 2 -1 3q0 1 -1 3v0v1l-175 275l-0.5 0.5l-0.5 0.5q-2 2 -4 3q0 1 -0.5 1h-0.5q-1 0 -4.5 8t-4.5 8h-225l-16 24q24 5 39.5 23t15.5 42q0 28 -20.5 47.5t-49.5 19.5t-49.5 -19.5t-20.5 -47.5q0 -24 15.5 -42t39.5 -23l-18 -24h-224
q-2 0 -4.5 -8t-3.5 -8l-0.5 -0.5l-0.5 -0.5q-2 -1 -4 -3l-0.5 -0.5l-0.5 -0.5l-175 -275q-6 -11 3 -19q4 -3 10.5 -8.5t26.5 -17.5t40 -21.5t50 -17t58 -7.5q41 0 83.5 15.5t62.5 28.5t35 25q13 2 13 14q0 10 -10 14l-151 228h192v-344h-32q-18 0 -25 -8t0 -15.5t25 -7.5h32
v-31h-96q-3 0 -4.5 -8t0 -16t4.5 -8h96v-31h-128q-7 0 -15.5 -5.5t-8.5 -11.5t4.5 -10t11.5 -4h338q7 0 11.5 4t4.5 10t-9 11.5t-16 5.5h-129v31h97q3 0 5 8t0 16t-5 8h-97v31h32q8 0 11.5 7.5t0 15.5t-11.5 8h-32v344h193l-154 -234q0 -1 -0.5 -1t-0.5 -1l-0.5 -1.5
t-0.5 -3.5v-0.5v-0.5v-0.5v-0.5q0 -2 1 -3v-1v-1q1 -1 2 -3l0.5 -0.5l0.5 -0.5l1 -1q4 -3 10.5 -8.5t26.5 -17.5t40 -21.5t49.5 -17t58 -7.5t58.5 7.5t50 17t39.5 21.5t26.5 17.5t11 8.5v1q1 0 1.5 0.5l0.5 0.5q1 2 2 3v2zM512 714q27 0 37 -23h-74q10 23 37 23zM475 662h74
q-10 -24 -37 -24t-37 24zM254 530l129 -224h-257zM126 275h257q-76 -46 -129 -46q-51 0 -128 46zM896 306h-256l130 224zM640 275h256q-23 -14 -36 -21t-39.5 -16t-50.5 -9q-54 0 -130 46z" />
    <glyph glyph-name="jierupingtai" unicode="&#xe602;" 
d="M903 746h-781q-23 0 -39.5 -16.5t-16.5 -39.5v-559q0 -23 16.5 -39t39.5 -16h335v-168h-112v-56h112h111h112v56h-112v168h335q24 0 40 16t16 39v559q0 23 -16 39.5t-40 16.5zM903 188q0 -41 -7.5 -48t-47.5 -7h-669q-42 0 -49.5 6.5t-6.5 48.5v445q0 42 7 49t49 7h669
q40 0 47.5 -8t7.5 -48v-445zM708 578h-391q-11 0 -19.5 -8t-8.5 -20v-56q0 -11 8.5 -19.5t19.5 -8.5h391q12 0 20 8.5t8 19.5v56q0 12 -8 20t-20 8zM708 355h-391q-11 0 -19.5 -8.5t-8.5 -19.5v-56q0 -12 8.5 -20t19.5 -8h391q12 0 20 8t8 20v56q0 11 -8 19.5t-20 8.5z" />
    <glyph glyph-name="xxgd" unicode="&#xe610;" 
d="M760 658q-22 21 -53 21t-53 -21l-26 -26l-16 -17v0l-342 -341l3 -3l-80 -203l208 77l3 -2l385 385q21 21 21 51q-1 31 -23 53zM640 562l36 -35q11 -10 16 -15l-36 -36l-52 50zM563 486l52 -51l-212 -211l-52 50zM293 166l24 62l39 -38zM680 603l15 14q4 5 12 5t13 -5
l27 -26q5 -5 5 -12q1 -6 -4 -10l-15 -16zM824 896h-624q-83 0 -141.5 -55t-58.5 -133v-648q0 -78 58.5 -133t141.5 -55h624q83 0 141.5 55t58.5 133v648q0 78 -58.5 133t-141.5 55zM952 60q0 -48 -37.5 -82t-90.5 -34h-624q-53 0 -90.5 34t-37.5 82v648q0 48 37.5 82
t90.5 34h624q53 0 90.5 -34t37.5 -82v-648z" />
    <glyph glyph-name="jxgg" unicode="&#xe612;" 
d="M502 785l-15 6l-149 40q-43 11 -54 -31l-178 -738q-11 -43 31 -55l149 -40q44 -11 55 32l178 738q9 34 -17 48v0zM430 529q-3 -11 -11 -18q-7 -5 -14 -3h-2l-135 36q-8 2 -11 11q-2 5 -2 10t1 10q3 10 11 16q6 7 15 5l135 -37h1l1 -0.5l1 -0.5q6 -4 9 -10q2 -5 2 -9.5
t-1 -9.5zM452 618v-6q-2 -6 -7 -12l-4 -4q-1 -1 -4 -3q-6 -3 -10 -2h-1l-135 36q-8 3 -12 12q-2 6 -1 14v5q1 1 3 6q3 7 8 11q8 7 16 4l135 -36h1q4 -2 7 -7q2 -3 3 -4q2 -5 2 -10v-2.5t-1 -1.5zM705 759q-4 -10 -4 -24v-765q0 -14 4 -24q5 -9 11 -9q7 0 12 9q5 10 5 24v765
q0 13 -5 24q-5 10 -12 10q-6 0 -11 -10zM685 735q0 14 -4 24q-5 9 -12 9t-12 -9q-4 -11 -4 -24v-765q0 -14 4 -24q5 -9 12 -9t12 9q4 10 4 24v765zM895 759q-4 -10 -4 -24v-765q0 -14 4 -24q5 -9 11.5 -9t11.5 9q5 10 5 24v765q0 13 -5 24q-5 10 -11 10q-7 0 -12 -10v0z
M875 735q0 14 -4 24q-5 9 -12 9t-11 -9q-5 -11 -5 -24v-765q0 -14 5 -24q4 -9 11 -9t12 9q4 10 4 24v765zM615 765q-10 9 -24 9q-13 0 -23 -9q-10 -10 -10 -24v-771q0 -14 10 -23q10 -10 23 -10q14 0 24 10q10 9 10 23v771q0 14 -10 24v0zM765 765q-10 -10 -10 -24v-771
q0 -14 10 -23q10 -10 23 -10q14 0 24 10q10 9 10 23v771q0 14 -10 24q-10 9 -24 9q-13 0 -23 -9v0z" />
    <glyph glyph-name="bianji" unicode="&#xe604;" 
d="M1009 412l-59 -57l-159 159l58 57q13 13 31 14.5t30 -9.5l105 -103q11 -11 9 -29.5t-15 -31.5v0v0v0zM763 487l161 -157l-383 -378q-6 -6 -14 -8q-1 0 -3 -1l-200 -62q-10 -3 -15 3q-6 6 -3 15l64 196q0 2 1 3q2 12 9 15l73 67h-243q-7 0 -13 7t-6 14t6 14t13 7h281
l272 265v0v0zM491 -35l-98 97l-27 -82l42 -42l83 27v0v0zM758 425q-4 4 -10.5 4t-10.5 -4l-300 -294q-5 -4 -5 -10.5t5 -10.5q4 -3 10 -3t10 3l299 295q11 8 2 20v0v0v0zM90 -149q-21 0 -21 14v801q0 5 1 8.5t4.5 5t4.5 1.5h7.5h8.5h69v-27q0 -7 7.5 -13t15.5 -6t15.5 6
t7.5 13v27h104v-27q0 -7 7 -13t16 -6q8 0 15.5 6t7.5 13v27h95v-27q0 -7 7 -13t16 -6q8 0 15 6t7 13v27h95v-27q0 -7 7.5 -13t15.5 -6t15.5 6t7.5 13v27h80q16 0 16 -15v-132l59 57v75q0 31 -21.5 51.5t-53.5 20.5h-81v49q0 8 -7 13.5t-16 5.5q-8 0 -15.5 -5.5t-7.5 -13.5
v-49h-95v49q0 8 -7 13.5t-16 5.5q-8 0 -15.5 -5.5t-7.5 -13.5v-49h-95v49q0 8 -7 13.5t-15 5.5t-15.5 -5.5t-7.5 -13.5v-49h-104v49q0 8 -7 13.5t-16 5.5q-8 0 -15.5 -5.5t-7.5 -13.5v-49h-68q-42 0 -63.5 -20t-21.5 -52v-800q0 -31 24 -51.5t57 -20.5h629q32 0 53 20.5
t21 51.5v276l-58 -57v-220q0 -14 -16 -14h-630zM588 521h-379q-7 0 -12.5 -7t-5.5 -14q0 -8 5.5 -15t12.5 -7h379q7 0 12.5 7t5.5 14.5t-5.5 14.5t-12.5 7v0v0v0zM588 375h-379q-7 0 -12.5 -7t-5.5 -14q0 -8 5 -15t13 -7h379q7 0 12.5 7.5t5.5 14.5t-5.5 14t-12.5 7v0v0v0z
M588 375z" />
    <glyph glyph-name="xtgkan" unicode="&#xe60b;" 
d="M0 -77v768q0 43 30 73t72 30h820q42 0 72 -30t30 -73v-768h-1024zM153.5 742q-21.5 0 -36.5 -15t-15 -36t15 -36t36.5 -15t36.5 15t15 36t-15 36t-36.5 15zM307 742q-21 0 -36 -15t-15 -36t15 -36t36 -15t36 15t15 36t-15 36t-36 15zM461 742q-21 0 -36 -15t-15 -36
t15 -36t36 -15t36 15t15 36t-15 36t-36 15zM973 589h-922v-615h922v615zM256 77h-102v153h102v-153zM461 77h-103v256h103v-256zM666 77h-103v409h103v-409zM870 77h-102v256h102v-256z" />
    <glyph glyph-name="download" unicode="&#xe611;" 
d="M512 563zM512 13l-226 226v64l203 -204v464h46v-464l203 204v-64zM512 -210q-101 0 -193 39.5t-159 106.5t-106.5 159t-39.5 193t39.5 193t106.5 159t159 106.5t193 39.5t193 -39.5t159 -106.5t106.5 -159t39.5 -193t-39.5 -193t-106.5 -159t-159 -106.5t-193 -39.5z
M512 757q-95 0 -182 -37t-150 -100t-100 -150t-37 -182t37 -182t100 -150t150 -100t182 -37t182 37t150 100t100 150t37 182t-37 182t-100 150t-150 100t-182 37z" />
    <glyph glyph-name="skts" unicode="&#xe613;" 
d="M455.5 694q-38.5 0 -66 -27.5t-27.5 -66t27.5 -66t66 -27.5t66 27.5t27.5 66t-27.5 66t-66 27.5zM455.5 569q-12.5 0 -22 9.5t-9.5 22t9.5 22t22 9.5t22 -9.5t9.5 -22t-9.5 -22t-22 -9.5zM315 444q-32 0 -55 -23t-23 -55t23 -55t55 -23t55 23t23 55t-23 55t-55 23z
M314.5 350q-6.5 0 -11 5t-4.5 11.5t4.5 11t11 4.5t11 -4.5t4.5 -11t-4.5 -11.5t-11 -5zM687.5 202q-18.5 18 -44.5 18t-44 -18t-18 -44t18 -44.5t44 -18.5t44.5 18.5t18.5 44.5t-18.5 44zM886 617q38 56 54 96q25 64 -5 94q-24 23 -49 21q-14 -2 -57 -21q-30 -13 -51 -22
q-12 -5 -17 -17t0 -24.5t17 -17.5t24 0q22 10 53 23q25 12 33 14q-1 -35 -66 -127q-92 -131 -259 -298q-160 -160 -298 -253q-5 -1 -9 -4q-89 -59 -127 -61q3 38 66 131q7 10 5.5 21.5t-9.5 19.5q-51 87 -51 189q0 101 50 187.5t136 136.5t188 50q52 0 87 -8t84 -29
q13 -5 25 0t17 17t0 24.5t-17 17.5q-54 23 -95 32t-101 9q-88 0 -168 -33t-142 -95t-95 -141.5t-33 -167.5q0 -113 55 -212q-38 -58 -54 -100q-25 -65 5 -96q17 -17 44 -17q52 0 147 60q111 -76 247 -76q87 0 167 33t142 95t95 142t33 168q0 130 -71 239zM519.5 3
q-101.5 0 -187.5 51q131 94 276 239t238 268q48 -85 48 -183q0 -102 -50 -188t-136.5 -136.5t-188 -50.5z" />
    <glyph glyph-name="YQLJZSB" unicode="&#xe62d;" 
d="M352 160l384 384q14 14 14 34t-14 34t-34 14t-34 -14l-384 -385q-14 -14 -14 -33.5t14 -33.5v0q14 -14 34 -14t34 14v0zM479 226q8 -11 8 -25q0 -18 -13 -30l-201 -201q-12 -13 -30 -13t-30 13l-115 114q-12 13 -12 30.5t12 30.5l201 201q13 12 31 12q10 0 20 -5l61 62
q-38 31 -87.5 28.5t-84.5 -37.5l-201 -201q-38 -37 -38 -90.5t38 -90.5l114 -114q38 -38 91 -38t90 38l201 201q36 36 37.5 87t-32.5 89zM986 743l-114 115q-38 37 -91 37t-90 -37l-202 -201q-35 -35 -37 -85t29 -87l61 61q-5 9 -5 20q0 18 13 30l201 202q12 12 30 12
t30 -12l115 -115q12 -12 12 -30t-12 -30l-201 -202q-13 -12 -31 -12q-13 0 -24 8l-61 -61q38 -33 89 -32t87 37l201 202q38 37 38 90t-38 90v0z" />
    <glyph glyph-name="zxgc" unicode="&#xe614;" 
d="M669 101q0 8 -6 13.5t-14 5.5h-274q-8 0 -14 -5.5t-6 -13.5v-79h-195v-58h704v58h-195v79zM904 834h-784q-24 0 -41 -17t-17 -41v-549q0 -24 17 -41t41 -17h784q24 0 41 17t17 41v549q0 24 -17 41t-41 17zM904 247q0 -8 -6 -14t-14 -6h-744q-8 0 -14 6t-6 14v509
q0 8 6 14t14 6h744q8 0 14 -6t6 -14v-509v0zM487 479q0 13 0.5 34.5t0.5 67v75.5v30q-80 0 -135.5 -60.5t-55.5 -143.5q0 -82 58 -139t141 -57t140.5 55t57.5 137zM520 717v-206q207 -1 207 0q0 82 -62.5 144t-144.5 62z" />
    <glyph glyph-name="XZZX" unicode="&#xe66a;" 
d="M960 -26q0 -14 -11 -24t-27 -10h-820q-16 0 -27 10t-11 24v0q0 14 11 23.5t27 9.5h820q16 0 27 -9.5t11 -23.5v0zM719 803q0 -14 -11.5 -24t-26.5 -10h-336q-16 0 -27.5 10t-11.5 24v0q0 14 11.5 23.5t27.5 9.5h336q15 0 26.5 -9.5t11.5 -23.5v0zM719 682
q0 -14 -11.5 -24t-26.5 -10h-336q-16 0 -27.5 10t-11.5 24v0q0 14 11.5 23.5t27.5 9.5h336q15 0 26.5 -9.5t11.5 -23.5v0zM898 443h-179v151h-413v-151h-242l448 -408l448 408h-62zM192 388h159v161h323v-161h158l-320 -286z" />
    <glyph glyph-name="daxuekaoshi" unicode="&#xe615;" 
d="M1016 454l-503 169l-505 -169l505 -169l395 133v-197h41v211zM513 328l-376 126l376 125l374 -125zM781 182q-91 -38 -193 -47q-87 -8 -179 6q-91 13 -164 42v129h-41v-156l12 -6q75 -33 185 -50q62 -9 122 -9q34 0 68 3q116 11 219 56l12 6v156h-41v-130z" />
    <glyph glyph-name="gkfg" unicode="&#xe607;" horiz-adv-x="1424" 
d="M486 849l312 -172q6 -4 13.5 -2t10.5 8l9 15q4 6 2 13t-8 11l-312 172q-7 3 -14 1.5t-11 -8.5l-9 -14q-4 -7 -2 -13.5t9 -10.5v0zM216 402l312 -172q6 -4 13 -2t11 8l9 15q4 6 2 13t-8 11l-312 172q-7 3 -14 1.5t-11 -8.5l-9 -14q-4 -7 -2 -13.5t9 -10.5v0zM1316 192
l-625 309l84 139q4 6 2 13t-8 10l-281 155q-7 4 -14 2t-11 -8l-198 -328q-3 -6 -1.5 -13t8.5 -11l281 -154q6 -4 13 -2t11 8l84 139l592 -362q7 -4 14 -2.5t11 8.5l45 74q3 6 1 13t-8 10v0zM1414 148l-31 18q-6 3 -13.5 1t-11.5 -8l-54 -89q-3 -6 -1.5 -13t8.5 -11l31 -17
q6 -3 13.5 -1.5t11.5 7.5l54 90q3 6 1.5 13t-8.5 10v0zM740 42h-37q2 2 -2 3q-10 1 -10 5v89h-599v-89q0 -3 -22 -5q-5 -2 -5 -3h-38q-11 0 -19 -12t-8 -25v-89q0 -14 8 -29t19 -15h713q12 0 27.5 16t15.5 28v89q0 12 -15 24.5t-28 12.5v0zM691 -84h-599q-13 0 -29.5 16
t-16.5 28.5t16.5 28.5t29.5 16h599q13 0 29.5 -16t16.5 -28.5t-16.5 -28.5t-29.5 -16v0zM691 -84z" />
    <glyph glyph-name="zyjs" unicode="&#xe616;" 
d="M963 203h1l-131 561q-7 31 -32 52.5t-56 21.5h-470q-29 0 -51.5 -21t-32.5 -53l-131 -561h1q-3 -6 -3 -16v-183q0 -30 22 -52t52 -22h760q30 0 52 22t22 52v183q0 9 -3 16zM654 90h-284v129h-230l127 543h490l127 -543h-230v-129zM815 378l-53 -91h-500l-53 91h606z
M312 445l-54 91h507l-53 -91h-400v0zM362 603l-54 91h408l-54 -91h-300z" />
    <glyph glyph-name="SJHJPT" unicode="&#xe628;" 
d="M193 97h-53h-62h-52q-5 0 -5.5 1t-0.5 6v114q0 84 63 136q36 29 83 36q58 8 108 -18q43 -22 67 -63q22 -37 24 -76q1 -12 0.5 -65.5t0.5 -66.5q0 -4 -5 -4h-67h-101zM193 668q50 0 86 -34.5t36 -85.5t-36.5 -85.5t-86.5 -33.5q-50 0 -86 35t-35 85q0 50 35.5 84.5
t86.5 34.5zM994 747h-554q-6 0 -6 -6v-349v-349q0 -5 1 -6t6 -1h552q6 0 6.5 1t0.5 6v697q0 5 -0.5 6t-5.5 1zM487 673q216 -1 460 0q5 0 5 -5v-70q0 -6 -6 -6h-229h-227q-6 0 -7 1t-1 7v68q0 2 1 3.5t4 1.5zM482 506q0 6 6 6h229h229q4 0 5 -1t1 -5v-68q0 -7 -6 -7
q-86 1 -334 1q-100 0 -124 -1q-6 0 -6 6q1 37 0 69zM482 347q0 4 4 4h231h228q5 0 6 -1t1 -6v-68q0 -3 -1 -4t-4 -1h-460q-5 0 -5 5v71zM952 116q0 -6 -5 -6h-460q-5 0 -5 6q1 37 0 70q0 5 6 5q56 -1 229 -1q176 0 229 1q6 0 6 -7v-68z" />
    <glyph glyph-name="xuesheng" unicode="&#xe601;" 
d="M910 502.5q0 26.5 -16.5 47t-42.5 26.5l-326 75q-8 2 -16.5 2t-16.5 -2l-326 -75q-26 -6 -42.5 -26.5t-16.5 -47t16.5 -47t42.5 -26.5l67 -16v-267q0 -54 67.5 -89.5t208 -35.5t208 35.5t67.5 89.5v267l67 16q26 6 42.5 26.5t16.5 47zM734 146q0 -11 -14.5 -23.5t-41 -24
t-71.5 -19.5t-98.5 -8t-98.5 8t-71.5 19.5t-41 24t-14.5 23.5v256l209 -48q8 -2 16.5 -2t16.5 2l209 48v-256zM514 403q-3 -1 -5.5 -1t-5.5 1l-326 75q-9 2 -14 8.5t-5 15.5t5 16t14 9l326 75h5.5h5.5l326 -75q9 -2 14.5 -9t5.5 -16t-5.5 -15.5t-14.5 -8.5zM834 377v-226
q0 -10 7.5 -17.5t18 -7.5t18 7.5t7.5 17.5v226q0 10 -7.5 17.5t-18 7.5t-18 -7.5t-7.5 -17.5zM860 101q-19 0 -35 -37.5t-16 -62.5q0 -21 15 -35.5t35.5 -14.5t35.5 14.5t15 35.5q0 25 -16 62.5t-34 37.5v0z" />
    <glyph glyph-name="YQLJ" unicode="&#xe629;" 
d="M621 489q63 -62 63 -151t-63 -152l-193 -193q-63 -63 -152 -63t-152 63l-3 3q-63 63 -63 152t63 152l135 135q-1 -61 22 -117l-88 -88q-34 -34 -34 -82t34 -82l4 -4q34 -34 82 -34t82 34l194 194q34 34 34 82t-34 82l-4 3q-10 11 -23 18l71 71q12 -9 21 -19zM903 772
l-3 3q-63 63 -152 63t-152 -63l-193 -193q-63 -63 -63 -152t63 -152l3 -3q10 -9 22 -19l71 71q-13 7 -23 17l-4 4q-34 34 -34 82t34 82l194 194q34 34 82 34t82 -34l4 -4q34 -34 34 -82t-34 -82l-88 -88q23 -56 22 -117l135 135q63 63 63 152t-63 152z" />
    <glyph glyph-name="XGLJ" unicode="&#xe645;" 
d="M379 103q-15 -16 -37 -16t-37 16l-74 74q-16 15 -16 37t16 37l186 186q-30 18 -66 14t-61 -30l-133 -133q-31 -31 -31 -74t31 -74l111 -111q31 -31 74 -31t74 31l133 133q26 25 30 61t-14 66zM867 628l-111 111q-31 31 -74 31t-74 -31l-133 -133q-26 -25 -30 -61t14 -66
l186 186q15 16 37 16t37 -16l74 -74q16 -15 16 -37t-16 -37l-186 -186q30 -18 66 -14t61 30l133 133q31 31 31 74t-31 74v0v0zM370 260l18 -18q12 -12 28 -12t28 12l210 210q12 12 12 28t-12 28l-18 18q-12 12 -28 12t-28 -12l-210 -210q-12 -12 -12 -28t12 -28v0v0z
M370 260z" />
    <glyph glyph-name="ZSPT" unicode="&#xe69a;" 
d="M872 778h-720q-31 0 -52.5 -22.5t-21.5 -54.5v-476q0 -31 24 -55t55 -24h316v-79h-198v-79h474v79h-198v79h316q31 0 55 24t24 55v476q0 32 -21.5 54.5t-52.5 22.5zM867 225l-214 3v0h-25h-12v0l-459 -3v474h710v-474zM452 484q-55 0 -94.5 -53t-39.5 -128v-10h268v10
q0 75 -39.5 128t-94.5 53v0zM453 502q28 0 48 19t20 46t-20 46t-48 19t-47.5 -19t-19.5 -46t19.5 -46t47.5 -19v0zM617 420q-10 0 -19 -3q27 -51 27 -114v-10h81v7q0 50 -26 85t-63 35v0zM662 476q0 18 -13 30.5t-31.5 12.5t-32 -12.5t-13.5 -30.5t13.5 -30.5t32 -12.5
t31.5 12.5t13 30.5v0zM662 476z" />
    <glyph glyph-name="xggd" unicode="&#xe617;" 
d="M64 832v-896h896v896h-896zM303 -34h-209v597h209v-597zM930 -34h-597v597h597v-597zM930 593h-836v209h836v-209zM154 742h30v-30h-30v30zM154 682h30v-29h-30v29zM214 742h626v-30h-626v30zM214 682h477v-29h-477v29zM124 444h149v-30h-149v30zM124 384h149v-30h-149
v30zM124 324h149v-30h-149v30zM124 265h149v-30h-149v30zM124 205h149v-30h-149v30zM393 503h119v-119h-119v119zM572 503h119v-119h-119v119zM751 503h119v-119h-119v119zM393 324h119v-119h-119v119zM572 324h119v-119h-119v119zM751 324h119v-119h-119v119zM393 145h119
v-119h-119v119zM572 145h119v-119h-119v119zM751 145h119v-119h-119v119z" />
    <glyph glyph-name="diaocha" unicode="&#xe626;" 
d="M804 66q0 -8 -5.5 -14t-13.5 -6h-569q-28 0 -47.5 19.5t-19.5 47.5v73q0 28 19.5 47.5t47.5 19.5h569q8 0 13.5 -6t5.5 -14t-5.5 -13.5t-13.5 -5.5h-12v-129h12q8 0 13.5 -5.5t5.5 -13.5v0v0zM241 82h493v135h-493q-11 0 -18.5 -9.5t-7.5 -22.5v-71q0 -13 7.5 -22.5
t18.5 -9.5v0zM888 298q0 -9 -6 -14.5t-14 -5.5h-488q-26 0 -44 18t-18 44v52q0 26 18 44t44 18h488q8 0 14 -5.5t6 -14t-6 -14t-14 -5.5h-10v-98h10q8 0 14 -5.5t6 -13.5v0zM380 317h439v98h-439q-10 0 -16.5 -6.5t-6.5 -16.5v-52q0 -10 6.5 -16.5t16.5 -6.5v0zM911 690
h-779q-8 0 -13.5 -5.5t-5.5 -14t5.5 -14t13.5 -5.5h17v-167q-15 -10 -15 -28q0 -14 10 -24t24.5 -10t24.5 10t10 24q0 18 -15 28v167h92v-154q0 -8 5.5 -13.5t13.5 -5.5h445q8 0 13.5 5.5t5.5 13.5v154h148q8 0 13.5 5.5t5.5 14t-5.5 14t-13.5 5.5v0z" />
    <glyph glyph-name="SFGS" unicode="&#xe636;" 
d="M888 803h-339q0 15 -11.5 26.5t-27 11.5t-26.5 -11.5t-11 -26.5h-340q-10 0 -17.5 -10.5t-7.5 -22t7.5 -22t17.5 -10.5h32v-520q0 -21 14.5 -35.5t35.5 -14.5h604q21 0 35.5 14.5t14.5 35.5v519h19q10 0 17.5 11t7.5 22.5t-7.5 22t-17.5 10.5zM814 238q0 -5 -3.5 -8.5
t-8.5 -3.5h-569q-5 0 -8.5 3.5t-3.5 8.5v499h593v-499zM426 199q-8 0 -13 -5l-152 -127q-5 -5 -5 -13t5.5 -13.5t13.5 -5.5t13 6l151 126q6 5 6 13t-5.5 13.5t-13.5 5.5v0zM596 199q-8 0 -13.5 -5.5t-5.5 -13.5t5 -13l151 -126q6 -6 14 -6t13.5 5.5t5.5 13.5t-6 13l-151 127
q-6 5 -13 5v0zM280 641h469q8 0 13.5 5.5t5.5 13t-5.5 13.5t-13.5 6h-469q-8 0 -13.5 -6t-5.5 -13.5t5.5 -13t13.5 -5.5zM749 563h-471q-8 0 -13.5 -5.5t-5.5 -13.5t5.5 -13.5t13.5 -5.5h471q8 0 13.5 5.5t5.5 13.5t-5.5 13.5t-13.5 5.5zM749 447h-471q-8 0 -13.5 -5.5
t-5.5 -13.5t5.5 -13.5t13.5 -5.5h471q8 0 13.5 5.5t5.5 13.5t-5.5 13.5t-13.5 5.5zM749 331h-467q-8 0 -13.5 -5.5t-5.5 -13.5t5.5 -13.5t13.5 -5.5h467q8 0 13.5 5.5t5.5 13.5t-5.5 13.5t-13.5 5.5z" />
    <glyph glyph-name="mxmk" unicode="&#xe618;" 
d="M993 47q4 -148 -236 -140q-289 -12 -309 161q-104 -153 -244 -153q-124 -4 -172 132q132 33 236 129q-4 4 -12 4q-8 4 -12 4q-24 -20 -60 -20q-112 4 -120 165q0 36 16 108q12 56 12 89q-40 24 -60 68q128 80 140 145q0 11 -4 28q-4 20 -4 28q0 24 12 48q20 -12 44 -12
q20 0 56 16q32 12 52 12q100 -4 124 -64q104 24 165 24q252 -12 260 -149q0 -68 -72 -104q152 -44 152 -225q0 -101 -48 -145q12 -20 40 -48q48 -44 44 -101v0zM292 337v-12q49 0 88 8q12 20 16 44q8 12 8 32q0 8 -4 12q-15 0 -56 -4q-35 -4 -56 -8q4 -29 4 -72zM416 634h-4
q-35 -44 -92 -80q21 4 52 8q121 20 181 20q40 40 40 52q0 16 -28 16q-24 0 -73 -8q-47 -8 -76 -8zM593 397q0 -24 -8 -48h20q84 0 108 -24q24 116 -104 108h-28q12 -12 12 -36zM833 168q-64 4 -100 52q-16 -32 -52 -32h-32v-12q-4 -8 -4 -12q0 -68 92 -68q60 0 96 32
q16 16 28 40h-28z" />
    <glyph glyph-name="GZCX" unicode="&#xe66b;" 
d="M846 21q45 58 45 132q0 89 -63.5 153t-153.5 64t-153.5 -64t-63.5 -153.5t63.5 -153t153.5 -63.5q76 0 135 47l103 -103q8 -7 19 -7t18.5 7.5t7.5 18.5t-8 19l-103 103v0zM790 36.5q-48 -48.5 -116 -48.5t-116 48.5t-48 116.5t48 116t116 48t116 -48t48 -116t-48 -116.5z
M630 681l-236 1q-91 -32 -168.5 -105.5t-122.5 -168.5t-45 -188q0 -181 109 -264.5t344 -83.5q37 0 73 2q-59 20 -104 63q-93 2 -160 19q-73 18 -117 53q-40 32 -60 81q-21 53 -21 130q0 60 23 123q22 62 64 118q41 56 94 98q49 37 100 57l2 1l213 -1q52 -20 100 -57
q54 -42 95 -98q36 -48 58 -102q80 -74 92 -182q1 21 1 43q0 93 -45 188t-122 168.5t-167 104.5zM323 833h-1l75 -113h228l75 112l-1 5v1q1 4 1 6q0 20 -15 27l-2 1l-1 1q-92 23 -169 23h-2q-77 0 -172 -23l-2 -2q-16 -7 -16 -27q0 -2 1 -7zM417 823q54 8 94 9h2q40 0 92 -9
l10 -1l-25 -37h-159l-24 36zM632 431l5 5q8 11 6 19t-13 19q-12 12 -28 12q-10 0 -16 -6l-84 -90l-90 91q-5 4 -12 4q-14 0 -27 -12q-9 -10 -11.5 -21t3.5 -18l92 -91l-3 -5q-2 -2 -2 -4l-2 -5h-71v0h-5q-14 0 -23.5 -9.5t-9.5 -23.5t9.5 -23.5t23.5 -9.5h2h37q30 67 88 112
t131 56zM380 212v0h-6q-14 0 -23.5 -10t-9.5 -23.5t9.5 -23t23.5 -9.5h15v0.5v0.5q0 32 7 65h-16z" />
    <glyph glyph-name="KQLB" unicode="&#xe62b;" 
d="M843 460v201q0 23 -16 39.5t-39 16.5h-444q-23 0 -39.5 -16.5t-16.5 -39.5v-555q0 -23 16.5 -39t39.5 -16h90q36 -69 96 -111h-186q-69 0 -118 48.5t-49 117.5v0h-55q-23 0 -39.5 16.5t-16.5 39.5t16.5 39t39.5 16h55v111h-55q-23 0 -39.5 16.5t-16.5 39.5t16.5 39
t39.5 16h55v111h-55q-23 0 -39.5 16.5t-16.5 39.5t16.5 39t39.5 16h55q0 69 49 118t118 49h444q69 0 117.5 -49t48.5 -118v-297q-42 61 -111 96v0zM344 439h186q-31 -21 -59 -55h-127v55zM344 328h90q-13 -26 -22 -55h-68v55v0zM344 162v55h58q0 -1 -1.5 -11.5t-1.5 -16
t1.5 -15.5t1.5 -12h-58zM344 661h444v-55h-444v55zM788 495h-444v55h444v-55v0zM455 190q0 103 73 176t176.5 73t176.5 -73t73 -176.5t-73 -176.5t-176.5 -73t-176.5 73t-73 177v0zM705 51q57 0 97.5 40.5t40.5 98t-40.5 98t-98 40.5t-98 -40.5t-40.5 -98t40.5 -98
t98.5 -40.5v0zM705 273q11 0 19 -8t8 -20v-28h28q12 0 20 -8t8 -19.5t-8 -19.5t-20 -8h-55q-12 0 -20 8t-8 20v55q0 12 8 20t20 8v0z" />
    <glyph glyph-name="xxgkzn" unicode="&#xe608;" horiz-adv-x="1112" 
d="M968 7v195h69v-195h-69v0zM968 483h69v-195h-69v195zM968 764h69v-195h-69v195zM224 867h373v-531l108 114l108 -114v531h121v-963h-710v963zM74 867h97v-963h-97v963z" />
    <glyph glyph-name="jubao" unicode="&#xe605;" 
d="M508 689v0l-356 -611l-8 -14h15h706q15 0 15.5 0.5t-7.5 15.5l-348 609q-8 14 -8.5 14t-8.5 -14v0zM453 722q26 45 63.5 45t64.5 -46l347 -610q27 -46 8 -78.5t-71 -32.5h-706q-52 0 -70.5 32.5t7.5 77.5l357 612v0zM486 461q-4 -9 -1 -23q1 -8 4 -34q1 -10 3.5 -31
t3.5 -31q4 -40 5 -43q6 -38 28 -37q10 1 17 16q5 10 7 44q0 2 0.5 6.5t0.5 7.5q2 23 5 68q1 9 2.5 25.5t1.5 19.5q1 14 -8 21q-10 8 -25 10q-14 1 -27 -3.5t-17 -15.5v0zM484 182q0 -17 12.5 -29t30 -12t29.5 12t12 29.5t-12 29.5t-29.5 12t-30 -12t-12.5 -30v0z" />
    <glyph glyph-name="xxgksqb" unicode="&#xe609;" 
d="M597 633h-387q-15 0 -26 11t-11 26t11 26t26 11h387q16 0 26.5 -11t10.5 -26t-10.5 -26t-26.5 -11v0zM597 337h-387q-15 0 -26 11t-11 26.5t11 26.5t26 11h387q16 0 26.5 -11t10.5 -26.5t-10.5 -26.5t-26.5 -11v0zM421 178h-211q-15 0 -26 11t-11 26t11 26t26 11h211
q16 0 26.5 -11t10.5 -26t-10.5 -26t-26.5 -11v0zM547 473h-337q-15 0 -26 11t-11 26.5t11 26.5t26 11h337q16 0 26.5 -11t10.5 -26.5t-10.5 -26.5t-26.5 -11v0zM740 184v-188h-611v776h611v-345l64 57v348h-739v-896h739v298zM869 512l-41 -38l88 -80l42 38zM618 284l88 -80
l201 182l-88 80zM691 190l-88 80l-10 -8l-25 -103l113 23zM691 190z" />
    <glyph glyph-name="jxjc" unicode="&#xe619;" 
d="M266 215h474q13 0 18 9.5t-0.5 19.5t-17.5 10h-474q-12 0 -17 -9.5t0 -19.5t17 -10zM516 372q12 0 17 10t0.5 20t-17.5 10h-263q-13 0 -18.5 -10t0 -20t18.5 -10h263zM845 320v-342h-513v131q0 9 -8.5 18t-17.5 9h-132v657h198q8 0 11.5 10t0 20t-11.5 10h-211
q-9 0 -17.5 -8.5t-8.5 -17.5v-695q0 -7 4 -12v0q1 -2 2 -3l156 -152q7 -7 16 -7h546q9 0 17 9t8 18v355q0 13 -19 13t-20 -13zM293 4l-92 92h92v-92zM661 517q49 0 84 23l101 -101q7 -7 16 -7t15.5 6.5t6.5 15.5t-6 16l-100 99q41 48 41 106q0 66 -48 112t-115 46
q-65 0 -109 -46t-44 -112t46 -112t112 -46zM661 793q5 0 13 -1t28 -8.5t36 -18.5t28.5 -35t12.5 -55q0 -48 -35 -83t-83 -35t-83 35t-35 83t35 83t83 35z" />
    <glyph glyph-name="peixunkecheng" unicode="&#xe603;" 
d="M891 677q-40 41 -93 62q-51 20 -106 20t-106 -20q-41 -17 -74 -45q-33 28 -74 45q-51 20 -106 20t-106 -20q-53 -21 -93 -62l-9 -9v-659l53 52q63 64 152.5 64t153.5 -64v0v-8h9v-1l20 1l20 -1v1h9v8v0q64 64 153.5 64t152.5 -64l53 -52v659zM330 186q-78 0 -144 -40v497
q61 55 145.5 55t146.5 -55l1 -500q-68 43 -149 43zM838 146q-66 40 -144 40q-81 0 -149 -43l1 500q62 55 146.5 55t145.5 -55v-497z" />
    <glyph glyph-name="KCZRJS" unicode="&#xe63e;" 
d="M809 96l-65 -16q-25 -6 -31 -2.5t-12 27.5l-7 25l135 32l4 -16q9 -31 6.5 -37.5t-30.5 -12.5v0v0zM609 445q-6 24 -2.5 30t28.5 12l65 15q25 6 31 3.5t10 -20.5l79 -290l-135 -32zM518 76h-41q-27 0 -35.5 5.5t-8.5 28.5v504h129v-504q0 -24 -7 -29t-37 -5v0v0zM433 658
q0 23 8.5 28.5t35.5 5.5h41q28 0 36 -5.5t8 -28.5v-27h-129v27zM344 76h-102q-26 0 -31 4.5t-5 29.5v29h174v-29q0 -25 -5 -29.5t-31 -4.5v0v0zM206 186h174v-30h-174v30zM206 452h174v-249h-174v249zM206 529q0 25 5 30t31 5h102q26 0 31 -5t5 -30v-43h-174v43zM206 529z
" />
    <glyph glyph-name="XZZQ" unicode="&#xe606;" 
d="M235 470l221 -221q23 -24 56 -24t56 24l221 221q13 13 13 31.5t-13 31.5t-31.5 13t-31.5 -13l-170 -171v479q0 18 -13 31t-31 13t-31 -13t-13 -31v-479l-170 171q-13 13 -31.5 13t-31.5 -13t-13 -31.5t13 -31.5v0zM839 768q-18 0 -31 -13t-13 -31t13 -31t31 -13
q40 0 68 -28.5t28 -68.5v-515q0 -40 -28 -68.5t-68 -28.5h-654q-40 0 -68 28.5t-28 68.5v515q0 40 28 68.5t68 28.5q18 0 31 13t13 31t-13 31t-31 13q-76 0 -130.5 -54t-54.5 -131v-515q0 -77 54.5 -131t130.5 -54v0h654q76 0 130.5 54t54.5 131v515q0 77 -54 131t-131 54v0
zM839 768z" />
    <glyph glyph-name="TZGG" unicode="&#xe632;" 
d="M526 -28q-31 0 -69 37l-182 183h-83q-40 0 -68 28t-28 68v192q0 40 28 68t68 28h83l182 183q37 37 69 37q20 0 35 -15t15 -45v-704q0 -31 -15 -45.5t-35 -14.5zM192 512q-13 0 -22.5 -9.5t-9.5 -22.5v-192q0 -13 9.5 -22.5t22.5 -9.5h96q13 0 23 -9l192 -192l9 -9v676
q-5 -4 -9 -9l-192 -192q-10 -9 -23 -9h-96zM688 166q-11 0 -19 6q-11 7 -13 20.5t6 23.5l12 18q22 29 32 45t20 45t10 60q0 33 -9 60.5t-18.5 42.5t-29.5 42q-10 13 -17 23q-8 10 -6 23.5t13 21t24 5.5t21 -13q4 -7 16 -21q23 -31 34.5 -49.5t23.5 -55.5t12 -79
q0 -41 -13 -79t-25 -57.5t-36 -51.5l-12 -17q-10 -13 -26 -13zM796 57q-12 0 -21 8q-10 9 -10.5 22t7.5 23q58 66 91 130t33 144t-33 144t-91 130q-8 10 -7.5 23t10.5 22t23.5 8t22.5 -11q63 -73 101 -147.5t38 -168.5t-38 -168.5t-101 -147.5q-10 -11 -25 -11z" />
    <glyph glyph-name="kaoqinguanli" unicode="&#xe61a;" 
d="M702 395l-253 -263l-127 141q-9 9 -22 10t-23 -8t-10.5 -22t8.5 -23l144 -158q9 -11 23 -11q4 0 8 2q3 -1 6 -1q13 0 23 10l269 279q9 10 9 23t-9.5 22t-22.5 9t-23 -10zM893 704h-126v96q0 13 -9.5 22.5t-22.5 9.5t-22.5 -9.5t-9.5 -22.5v-96h-384v96q0 13 -9.5 22
t-22.5 9t-22 -9t-9 -22v-96h-125q-27 0 -46.5 -19.5t-19.5 -47.5v-633q0 -27 19.5 -46.5t46.5 -19.5h762q28 0 47 19.5t19 46.5v633q0 28 -19 47.5t-47 19.5zM131 640h762q3 0 3 -3v-125h-767v125q0 3 2 3zM893 1h-762q-2 0 -2 3v445h767v-445q0 -3 -3 -3z" />
    <glyph glyph-name="yuyue" unicode="&#xe61b;" 
d="M398 356h-197v-56h197v56v0zM201 159h197v56h-197v-56v0zM736 384q-93 0 -159 -66t-66 -159t66 -159.5t159 -66.5t159 66.5t66 159.5t-66 159t-159 66v0zM736 -10q-70 0 -119.5 49.5t-49.5 119.5t49.5 119.5t119.5 49.5t119.5 -49.5t49.5 -119.5t-49.5 -119.5
t-119.5 -49.5v0zM145 74q-12 0 -20 8.5t-8 19.5v338h651q28 -4 53 -14v14v57v140q0 35 -25 60t-60 25h-56v113h-57v-113h-337v113h-57v-113h-84q-35 0 -60 -25t-25 -60v-535q0 -35 25 -59.5t60 -24.5h357q-21 26 -33 56h-324v0zM117 581v38v18q0 12 8 20.5t20 8.5h84v-85h57
v85h337v-85h57v85h56q12 0 20 -8.5t8 -20.5v-19v-38v-83h-647v84v0zM764 271h-56v-84v-28v-28h141v56h-85v84v0zM764 271z" />
    <glyph glyph-name="chengjichaxun" unicode="&#xe61c;" 
d="M897 872h-784q-14 0 -24 -10.5t-10 -24.5v-906q0 -14 10 -24.5t24 -10.5h655q15 0 25 10.5t10 24.5v645h94q14 0 24 10t10 25v226q0 14 -10 24.5t-24 10.5zM862 645h-94q-14 0 -24.5 -10t-10.5 -24v-645h-585v836h714v-157zM243 89h396q6 0 10 4t4 10t-4 10t-10 4h-396
q-6 0 -10 -4t-4 -10t4 -10t10 -4zM243 225h396q6 0 10 4t4 10t-4 10t-10 4h-396q-6 0 -10 -4t-4 -10t4 -10t10 -4zM243 361h396q6 0 10 4t4 9.5t-4 10t-10 4.5h-396q-6 0 -10 -4.5t-4 -10t4 -9.5t10 -4zM254 490q11 0 15 6q4 5 11 22l10 29h92l10 -28l6 -12q2 -7 5 -10.5
t7 -4.5q3 -2 9 -2q9 0 15.5 6.5t6.5 14t-7 23.5l-59 145q-2 7 -6 18q-3 6 -7 11.5t-10.5 9.5t-15.5 4t-15.5 -4t-10.5 -9q-4 -6 -7 -15l-6 -15l-58 -146q-3 -8 -4.5 -13t-1.5 -10q0 -8 6.5 -14t14.5 -6zM336 674l33 -93h-67zM897 524h-62v-281h62q14 0 24 10.5t10 24.5v212
q0 14 -10 24t-24 10zM897 192h-62v-296h62q14 0 24 10.5t10 24.5v226q0 15 -10 25t-24 10z" />
    <glyph glyph-name="ZRJS" unicode="&#xe6fa;" 
d="M958 -52l-9 -16h-888l1 24q2 91 24 164q32 107 104 162l7 6h10l118 1v-49l-108 1q-54 -45 -80 -133q-17 -58 -21 -130l789 1q2 55 -31 144q-28 75 -74 119h-123v47h140l11 -4q60 -49 97 -148q42 -116 33 -189v0zM518 10l-70 46l46 161l-18 25l2 25q37 2 75 0l2 -25
l-18 -25l52 -161zM722 477q-27 -82 -76 -127q-51 -47 -136 -62l-4 -1h-5q-78 12 -132 60q-52 47 -80 129q-23 11 -35 37q-14 28 -13 71v11l11 7q5 3 11 5q-8 45 -8.5 82t13.5 70.5t42 56.5q21 13 58 16t72 0.5t77 3.5q33 4 60.5 4t48.5 -2t37.5 -11t28 -16.5t21 -25
t14.5 -29t10 -37t7 -40.5t6 -47q2 -19 4 -28q2 -2 4 -2l10 -7v-11q1 -43 -12 -70q-11 -26 -34 -37zM696 563l-3 10l-7 -1l-4 19q-1 3 -6 49t-9 54q-4 -2 -8 -2.5t-8.5 0.5t-8 1.5t-9 3t-8 3.5t-9 4.5t-8.5 4.5l-9 -27l-16 2l2 16l-16 -23l-15 3l15 34q-36 -22 -88 -31.5
t-91 -6t-48 14.5q-1 -1 -4 -11q-2 -7 -6 -52.5t-6 -51.5l-1 -4v0q-1 -5 -2 -7q-5 3 -32 -1q2 -21 8 -35q7 -14 18 -17l13 -4l4 -11q24 -78 71 -120q40 -37 100 -47q66 14 106 50q43 39 66 117l4 11l12 4q11 4 18 18q6 14 8 34q-14 0 -23 -1z" />
    <glyph glyph-name="ZYZRJS" unicode="&#xe63b;" 
d="M780 573zM826 895l-628 1q-67 0 -116.5 -58t-49.5 -128v-507q0 -46 22 -96t61 -85t83 -35l148 -1l34 -114l199 113l247 -2q43 0 82.5 36t61.5 86.5t22 96.5v507q0 52 -17.5 90t-46.5 58t-61.5 29t-69.5 9h29zM437 582q-99 -2 -152 -6v56q62 -6 164 -6q20 77 21 98
q31 -10 64 -17q13 -2 14 -5.5t-9 -10.5q-9 -6 -28 -65h115q63 0 117 6v-56q-54 6 -117 6h-130q-4 -12 -12.5 -38t-12.5 -41h181q80 0 149 4v-54q-70 4 -149 4h-197q-3 -10 -10 -32.5t-11 -34.5h211q51 0 80 6v-54q-43 -3 -67 -21l-109 -80q69 -28 130 -59l-39 -50
q-145 83 -291 132l33 42q76 -28 115 -44l113 82h-149q-61 0 -85 -8q-6 26 -19 48q14 8 22.5 22.5t20.5 50.5q-130 -1 -178 -4v54q85 -6 192 -4q5 17 23 79z" />
    <glyph glyph-name="xjyd" unicode="&#xe61d;" 
d="M676 34q-56 0 -96 40t-40 96t40 96t96 40t96 -40t40 -96t-40 -96t-96 -40v0zM681 50q40 1 73 29q15 13 3 30q-5 8 -21 15q-26 12 -30 14q-5 3 -7.5 8.5t0.5 9t7.5 13.5t9.5 13q1 1 1 3q2 10 3 13l-2 6t-2 7q2 28 -22 41q-6 3 -12.5 3.5t-10.5 -0.5t-12 -4.5t-11 -4.5
q-2 0 -6 -5q-9 -11 -9 -30q0 -3 -2 -8q-1 -2 0 -11t4 -10q3 -2 6 -10q4 -8 8 -13.5t2.5 -11.5t-7.5 -9q-1 -1 -4.5 -2.5t-5.5 -2.5q-33 -16 -36 -19q-9 -5 -10 -15t6 -16q35 -33 87 -33zM769 750q0 22 -6.5 28.5t-27.5 6.5h-407h-3q-19 0 -25.5 -6.5t-6.5 -23.5v-38.5v-38.5
q0 -1 -1 -15h-51q-19 0 -25.5 -6.5t-6.5 -26.5v-523q0 -20 8 -26q2 3 6 4q0 7 6 9v487h437v-245h7t6.5 0.5t5.5 0.5v15v277q0 21 -6.5 27.5t-27.5 6.5h-319h-19v40h437v-1l2 1q12 1 17 0v47zM625 633q6 0 10.5 -4.5t4.5 -10.5t-4.5 -10t-10.5 -4t-10.5 4t-4.5 10t4.5 10.5
t10.5 4.5zM578 633q6 0 10.5 -4.5t4.5 -10.5t-4.5 -10t-10.5 -4t-10.5 4t-4.5 10t4.5 10.5t10.5 4.5zM529 633q6 0 10.5 -4.5t4.5 -10.5t-4.5 -10t-10.5 -4t-10.5 4t-4.5 10t4.5 10.5t10.5 4.5zM617.5 730q-6.5 0 -10.5 4t-4 10t4 10.5t10.5 4.5t10.5 -4.5t4 -10.5t-4 -10
t-10.5 -4zM666.5 730q-6.5 0 -10.5 4t-4 10t4 10.5t10.5 4.5t10.5 -4.5t4 -10.5t-4 -10t-10.5 -4zM713 730q-6 0 -10 4t-4 10t4 10.5t10 4.5t10.5 -4.5t4.5 -10.5t-4.5 -10t-10.5 -4zM503 449h123v96h-123v-96zM257 541h33v-17h-33v17zM257 470h33v-16h-33v16zM257 399h33
v-17h-33v17zM257 330h33v-17h-33v17zM257 255h33v-16h-33v16zM257 184h33v-17h-33v17zM321 541h146v-17h-146v17zM321 470h146v-16h-146v16zM321 399h306v-17h-306v17zM321 330h306v-17h-306v17zM321 255h219v-16h-219v16zM321 184h198v-17h-198v17zM539 86q-1 2 -3 5
q-1 2 -5 7h-307q-10 0 -10 -10v0q0 -10 10 -10h320q-2 4 -5 8zM756 324q2 -2 6 -5q3 -1 5 -3q1 -1 2 -3h0.5h0.5v0v396h-19v-382v0q2 -1 5 -3z" />
    <glyph glyph-name="ZTHD" unicode="&#xe70f;" 
d="M711 485l-99 14q-8 2 -12 9l-44 89q-15 30 -44 30t-44 -29l-44 -90q-4 -7 -12 -9l-99 -14q-33 -5 -42 -32q-9 -28 15 -51l72 -70q5 -6 4 -14l-17 -98q-4 -26 10 -43q11 -13 27.5 -15.5t33.5 6.5l89 46q1 1 7 1t7 -1l89 -46q13 -7 26 -7q21 0 35 16q14 17 10 43l-17 98
q-1 8 4 14l72 70q24 23 15 50.5t-42 32.5zM707 433l-71 -69q-10 -10 -15 -25t-3 -28l17 -99q1 -5 0 -7q-1 -1 -7 2l-88 46q-12 7 -28 7t-28 -6l-88 -47q-4 -2 -7 -2q-1 2 0 7l17 99q2 13 -3 28t-15 25l-71 69q-4 4 -3.5 6t6.5 3l98 14q13 2 26.5 11.5t18.5 21.5l45 89
q3 6 4 6t4 -6l44 -89q6 -12 19 -21.5t27 -11.5l98 -14q6 -1 6.5 -3t-3.5 -6zM512 826q-90 0 -171.5 -35t-141 -94.5t-94.5 -141t-35 -171.5t35 -171.5t94.5 -141t141 -94.5t171.5 -35t171.5 35t141 94.5t94.5 141t35 171.5t-35 171.5t-94.5 141t-141 94.5t-171.5 35zM512 -7
q-106 0 -196 52.5t-142.5 142.5t-52.5 196t52.5 196t142.5 142.5t196 52.5t196 -52.5t142.5 -142.5t52.5 -196t-52.5 -196t-142.5 -142.5t-196 -52.5z" />
    <glyph glyph-name="huiyi" unicode="&#xe61e;" 
d="M535 323h12q5 0 8 -3.5t3 -7.5v-185q0 -5 -3 -8t-8 -3h-12q-5 0 -8 3t-3 8v185q0 4 3.5 7.5t7.5 3.5zM478 323h11q5 0 8.5 -3.5t3.5 -7.5v-185q0 -5 -3.5 -8t-8.5 -3h-11q-5 0 -8.5 3t-3.5 8v185q0 4 3.5 7.5t8.5 3.5zM212.5 657q-9.5 0 -16 -6.5t-6.5 -16t6.5 -16.5
t16 -7t16.5 7t7 16.5t-7 16t-16.5 6.5zM213 576q-24 0 -41 17t-17 41t17 40.5t41 16.5t40.5 -16.5t16.5 -40.5t-16.5 -41t-40.5 -17zM374 231l-127 69v196q0 2 -1.5 6t-10 10.5t-22.5 6.5q-13 0 -21.5 -6t-10.5 -11l-3 -6v-173q-2 -18 12 -23l172 -81v-138h12v150v0z
M409 219v-138q0 -1 -0.5 -3.5t-3.5 -9t-7.5 -11t-13.5 -8t-21 -2.5q-15 0 -24 9.5t-10 15.5t-1 9v115l-150 70q-4 1 -9.5 4t-15 15t-9.5 27v195q0 2 1.5 5t7 11t13 14t20 11t27.5 6q15 0 28 -5t20 -11.5t12 -13.5t7 -12l2 -5v-184l104 -57q2 -1 6 -3.5t10 -14.5t7 -29z
M512.5 692q-9.5 0 -16.5 -7t-7 -16.5t7 -16t16.5 -6.5t16 6.5t6.5 16t-6.5 16.5t-16 7zM512 611q-24 0 -40.5 17t-16.5 40.5t16.5 40.5t40.5 17t41 -17t17 -40.5t-17 -40.5t-41 -17zM558 531v2.5t-3 5.5t-7.5 7t-13.5 5.5t-22 2.5t-22.5 -2.5t-14 -6t-7 -6.5t-2.5 -6v-2
v-139h92v139v0zM685 358h-345q-12 1 -12 15q0 8 3 13t6 5l3 1h92v151q0 1 0.5 4.5t4.5 11t11.5 13.5t24.5 11t39 5q21 1 37 -4t24 -11.5t13 -13.5t6 -12l1 -4v-151h92q11 -4 11 -17q1 -5 -2 -9.5t-6 -6.5zM811.5 657q-9.5 0 -16 -6.5t-6.5 -16t6.5 -16.5t16 -7t16.5 7
t7 16.5t-7 16t-16.5 6.5zM812 577q-24 0 -41 16.5t-17 40.5t17 41t41 17t40.5 -17t16.5 -41t-16.5 -40.5t-40.5 -16.5zM846 324v172q0 3 -2 7t-11 10t-21 6q-14 0 -22.5 -5.5t-10.5 -11.5l-2 -5v-196l-127 -68v-150h12v138l173 80q6 3 8.5 8.5t2.5 10.5v4zM881 313
q0 -15 -9 -26.5t-17 -15.5l-9 -4l-150 -69v-114q0 -4 -1 -9.5t-9.5 -15t-23.5 -10.5q-12 0 -21.5 3t-14 8t-7 11t-3 9t-0.5 4v137q0 17 6 28.5t11 14.5l6 3l103 57v184l2.5 5t6.5 11t12 14t20 11t29 5q23 0 40.5 -11.5t22.5 -23.5l6 -11v-195z" />
    <glyph glyph-name="gangweizhize" unicode="&#xe64d;" 
d="M776 832h-530q-36 0 -61.5 -25t-25.5 -60v-716q0 -36 25.5 -61t61.5 -25h530q36 0 61.5 25t25.5 61v716q0 35 -25.5 60t-61.5 25zM835 51q0 -34 -23.5 -57.5t-56.5 -23.5h-488q-33 0 -56.5 23.5t-23.5 57.5v675q0 33 23.5 57t56.5 24h488q33 0 56.5 -24t23.5 -57v-675z
M764 343q6 0 10 -4t4 -10v0q0 -6 -4 -10t-10 -4h-381q-5 0 -9 4t-4 10v0q0 6 4 10t9 4h381zM764 214q6 0 10 -4t4 -10v0q0 -5 -4 -9.5t-10 -4.5h-381q-5 0 -9 4.5t-4 9.5v0q0 6 4 10t9 4h381zM764 90q6 0 10 -4t4 -10v0q0 -6 -4 -10t-10 -4h-381q-5 0 -9 4t-4 10v0q0 6 4 10
t9 4h381zM764 471q8 0 8 -14v0q0 -14 -8 -14h-202q-8 0 -8 14v0q0 14 8 14h202zM764 600q8 0 8 -14v0q0 -14 -8 -14h-202q-8 0 -8 14v0q0 14 8 14h202zM413 739q0 -10 -6.5 -17t-16.5 -7h-42q-10 0 -17 7t-7 17v0q0 10 7 16.5t17 6.5h42q10 0 16.5 -6.5t6.5 -16.5v0z
M437 439l-67 -80l-68 80l48 284h36z" />
    <glyph glyph-name="cggz" unicode="&#xe61f;" 
d="M206 473h172v-172h-172v172zM425 473h171v-172h-171v172zM643 473h172v-172h-172v172zM206 223h172v-172h-172v172zM425 223h171v-172h-171v172zM851 767h-113v-53q0 -30 -21 -51t-51 -21h-4q-30 0 -51.5 21t-21.5 51v53h-158v-53q0 -30 -21 -51t-51 -21h-4q-30 0 -51 21
t-21 51v53h-113q-43 0 -74 -31t-31 -75v-680q0 -44 31 -75t74 -31h681q43 0 74 31t31 75v680q0 44 -31 75t-74 31v0zM887 -27q0 -7 -5 -12.5t-13 -5.5h-717q-8 0 -13 5.5t-5 12.5v573q0 8 5 13.5t13 5.5h717q8 0 13 -5.5t5 -13.5v-573zM356 662h3q22 0 38 15.5t16 38.5v110
q0 22 -16 38t-38 16h-3q-23 0 -38.5 -16t-15.5 -38v-110q0 -23 15.5 -38.5t38.5 -15.5v0zM661 662h3q23 0 38.5 15.5t15.5 38.5v110q0 22 -15.5 38t-38.5 16h-3q-22 0 -38 -16t-16 -38v-110q0 -23 16 -38.5t38 -15.5v0zM661 662z" />
    <glyph glyph-name="xtwj" unicode="&#xe60c;" 
d="M170 604h72v145q0 9 6 15t15 6h500q8 0 14 -6t6 -15v-145h72q8 0 14 -6.5t6 -14.5v-198h52q14 0 24 -10.5t10 -24.5v-315q0 -14 -10 -24.5t-24 -10.5h-829q-14 0 -24 10.5t-10 24.5v1v314q0 14 10 24.5t24 10.5h51v198q0 8 6.5 14.5t14.5 6.5v0zM191 385v0h51v177h-51
v-177zM283 385v0h459v343h-459v-343zM783 385v0h51v177h-51v-177zM892 315v0h-759v-245h109v76q0 9 6 15t15 6h500q8 0 14 -6t6 -15v-76h109v245v0zM283 70v0h459v56h-459v-56z" />
    <glyph glyph-name="ZCFG" unicode="&#xe62a;" 
d="M807 744l-141 -311h-40l149 330h-231v-771q21 -1 94 -21t135 -39.5l62 -19.5v-40h-653v42q243 78 280 78v771h-218l149 -330h-40l-141 311l-140 -311h-41l151 333v39h251q0 37 21.5 64t51.5 27q31 0 52 -27.5t21 -63.5h256v-33l153 -339h-41zM396 390q0 -79 -50.5 -135
t-133.5 -56q-81 0 -132 56.5t-51 134.5h91.5h183.5h92zM628 390h183.5h183.5q0 -79 -50.5 -135t-132.5 -56q-81 0 -132.5 56.5t-51.5 134.5z" />
    <glyph glyph-name="LXWM" unicode="&#xe635;" 
d="M1003 352q0 62 -25 106.5t-61 47.5q-34 142 -147.5 234.5t-259.5 92.5t-259.5 -92.5t-147.5 -234.5q-36 -4 -60.5 -48.5t-24.5 -105.5q0 -64 26.5 -109.5t63.5 -45.5h21.5t18.5 3t17.5 8.5t13.5 16.5t11.5 27.5t6 41.5t2.5 58q0 116 -35 143q31 119 126.5 196t218 77
t218 -77t126.5 -197h2q-34 -26 -34 -142q0 -94 22 -128q-42 -73 -104 -124q-52 -43 -140 -60q-13 17 -38.5 27.5t-57.5 10.5q-43 0 -74 -19.5t-31 -47t31 -47.5t74 -20q56 0 88 30q114 54 168 99q50 42 115 127q12 -3 38 -3q38 0 64.5 45.5t26.5 109.5z" />
    <glyph glyph-name="tuxiangcaiji" unicode="&#xe620;" 
d="M906 778h-473q0 49 -34.5 83.5t-83.5 34.5h-197q-49 0 -83.5 -34.5t-34.5 -83.5v-788q0 -49 34.5 -83.5t83.5 -34.5h788q49 0 83.5 34.5t34.5 83.5v670q0 49 -34.5 83.5t-83.5 34.5zM945 -10q0 -16 -11.5 -27.5t-27.5 -11.5h-788q-16 0 -27.5 11.5t-11.5 27.5v670
q0 16 11.5 27.5t27.5 11.5h788q16 0 27.5 -11.5t11.5 -27.5v-670zM672 311q0 -55 -38.5 -94t-93.5 -39t-94 39t-39 94t39 94t94 39t93.5 -39t38.5 -94zM736 532h-25l-36 63q-11 19 -39 19h-193q-27 0 -38 -19l-36 -63h-50q0 11 -8 19t-20 8h-55q-11 0 -19 -8t-8 -19v-5
q-25 -9 -40 -30t-15 -48v-279q0 -56 39 -95t95 -39h448q56 0 95 39t39 95v227q0 56 -39 95.5t-95 39.5zM264 435q-17 0 -29 12t-12 29.5t12 29.5t29 12t29 -12t12 -29.5t-12 -29.5t-29 -12zM539.5 117q-80.5 0 -137.5 56.5t-57 137.5t57 138t137.5 57t137.5 -57t57 -138
t-57 -137.5t-137.5 -56.5z" />
    <glyph glyph-name="xwby" unicode="&#xe621;" 
d="M929 657l27 10zM508 256q39 0 69 7.5t41 14.5l10 7q54 29 82.5 80t28.5 115v10q26 20 26 39v94l154 56l-411 149l-411 -149l154 -56v-94q0 -19 26 -39v-4v-6q0 -63 28 -114t81 -80l1 -1q4 -3 12 -8t39 -13t70 -8zM508 301q-71 0 -123 46t-59 113q109 -43 185 -43
q70 0 179 43q-7 -67 -59.5 -113t-122.5 -46v0v0zM709 542q0 -2 -5.5 -6t-15 -8.5t-13.5 -7.5t-9 -6q-29 -16 -72 -27.5t-86 -11.5t-86 11.5t-72 28.5l-8 5q-4 2 -13.5 7.5t-14 9t-4.5 5.5v54l198 -68l201 68v-54v0zM904 -62q25 0 38.5 20t13.5 49q0 33 -28.5 72t-68.5 72
t-80 60.5t-68 44l-28 16.5l-121 -221l-18 53l33 66l-67 66l-66 -66l33 -66l-21 -54l-118 222q-11 -6 -29 -16.5t-65 -42t-82.5 -62t-65 -70.5t-29.5 -73q0 -30 13 -50t39 -20h785zM876 139z" />
    <glyph glyph-name="zxdc" unicode="&#xe622;" horiz-adv-x="1025" 
d="M115.5 833q-47.5 0 -81.5 -34t-34 -82t34 -82t81.5 -34t81.5 34t34 82t-34 82t-81.5 34zM116 678q-16 0 -27.5 11.5t-11.5 27.5t11.5 27.5t27.5 11.5t27.5 -11.5t11.5 -27.5t-11.5 -27.5t-27.5 -11.5zM397 653h563q27 0 45.5 19t18.5 45.5t-18.5 45t-45.5 18.5h-563
q-27 0 -45.5 -18.5t-18.5 -45t18.5 -45.5t45.5 -19zM115.5 499q-47.5 0 -81.5 -34t-34 -81.5t34 -81.5t81.5 -34t81.5 34t34 81.5t-34 81.5t-81.5 34zM116 344q-16 0 -27.5 11.5t-11.5 27.5t11.5 27.5t27.5 11.5t27.5 -11.5t11.5 -27.5t-11.5 -27.5t-27.5 -11.5zM960 447
h-563q-27 0 -45.5 -18.5t-18.5 -45t18.5 -45.5t45.5 -19h563q27 0 45.5 19t18.5 45.5t-18.5 45t-45.5 18.5zM115.5 167q-47.5 0 -81.5 -34t-34 -82t34 -82t81.5 -34t81.5 34t34 82t-34 82t-81.5 34zM116 12q-16 0 -27.5 11.5t-11.5 27.5t11.5 27.5t27.5 11.5t27.5 -11.5
t11.5 -27.5t-11.5 -27.5t-27.5 -11.5zM960 115h-563q-27 0 -45.5 -19t-18.5 -45.5t18.5 -45t45.5 -18.5h563q27 0 45.5 18.5t18.5 45t-18.5 45.5t-45.5 19z" />
    <glyph glyph-name="zygh" unicode="&#xe623;" 
d="M224 210h64v63h-64v-63zM224 368h64v64h-64v-64zM768 432h-384q-13 0 -22.5 -9.5t-9.5 -22.5t9.5 -22.5t22.5 -9.5h384q13 0 22.5 9.5t9.5 22.5t-9.5 22.5t-22.5 9.5zM896 653h-264q-7 21 -17 39.5t-27.5 39t-45.5 34t-62 14.5h-352q-26 0 -45 -18.5t-19 -44.5v-666
q0 -26 19 -44.5t45 -18.5h768q26 0 45 18.5t19 44.5v539q0 26 -19 44.5t-45 18.5zM192 717h224q48 -3 77.5 -14.5t38.5 -22t15 -27.5h-419q0 27 19 45.5t45 18.5zM896 115q0 -27 -19 -45.5t-45 -18.5h-640q-26 0 -45 18.5t-19 45.5v475h704q26 0 45 -18.5t19 -44.5v-412z
M768 273h-384q-13 0 -22.5 -9t-9.5 -22.5t9.5 -22.5t22.5 -9h384q13 0 22.5 9t9.5 22.5t-9.5 22.5t-22.5 9z" />
    <glyph glyph-name="wangluokecheng" unicode="&#xe624;" 
d="M956 97v643h-890v-643h411v-26h-170v-34h408v34h-170v26h411v0zM113 143v551h795v-551h-795v0zM113 143zM176 486h185v-241h-185v241v0zM176 486zM176 576h365v-47h-365v47v0zM176 576zM390 486h151v-48h-151v48v0zM390 486zM390 389h151v-48h-151v48v0zM390 389z
M390 292h116v-47h-116v47v0zM390 292zM635 473q0 -39 22 -66t53.5 -27t54 27t22.5 65.5t-22.5 65.5t-54 27t-53.5 -27t-22 -65v0zM635 473zM790 361h-79h-79q-3 -1 -7 -3t-15 -9t-19.5 -15t-15 -20.5t-6.5 -25.5v-43h142h142v43q0 21 -16 39t-31 26l-16 8v0zM790 361z" />
    <glyph glyph-name="ZCFGZSB" unicode="&#xe63f;" 
d="M857 -57h-279v-70h279q29 0 49.5 20.5t20.5 49.5v572h-70v-572zM857 515h70v21l-70 -1v-20zM857 894h-701q-29 0 -49.5 -20.5t-20.5 -49.5v-415h70v415h701v-289l70 1v288q0 29 -20.5 49.5t-49.5 20.5zM156 824h279v70h-279q-29 0 -49.5 -20.5t-20.5 -49.5v-571h70v571z
M156 253h-70v-21l70 1v20zM156 -127h701q29 0 49.5 20.5t20.5 49.5v416h-70v-416h-701v290l-70 -1v-289q0 -29 20.5 -49.5t49.5 -20.5zM0 327v-455v455zM399 565h365v-45h-365v45zM687 726h45v-67h-45v67zM587 726h46v-67h-46v67zM488 726h46v-67h-46v67zM379 726h46v-67
h-46v67zM283 726h46v-67h-46v67zM250 445h514v-45h-514v45zM250 326h514v-46h-514v46zM250 206h514v-46h-514v46zM250 86h514v-46h-514v46z" />
    <glyph glyph-name="XSPT" unicode="&#xe63d;" 
d="M63 101h242v-43h-242v43zM63 -8q0 -35 7 -42t43 -7h142q36 0 43 7t7 42v42h-242v-42zM63 483h242v-357h-242v357zM305 594q0 35 -7 42t-43 7h-142q-36 0 -43 -7t-7 -42v-62h242v62zM559 778q0 34 -11.5 41.5t-50.5 7.5h-56q-39 0 -50.5 -7.5t-11.5 -41.5v-38h180v38z
M379 -8q0 -33 11.5 -41t50.5 -8h56q43 0 52.5 7.5t9.5 41.5v723h-180v-723zM809 531q-7 25 -15 28.5t-43 -4.5l-90 -22q-35 -9 -40 -17t3 -43l107 -405l187 46zM937 43l-6 23l-188 -46l10 -35q8 -34 16.5 -39t43.5 3l90 22q36 9 41 17t-4 41q-2 9 -3 14z" />
    <glyph glyph-name="gknb" unicode="&#xe60a;" 
d="M928 743l76 -67l2 220l-222 -20l74 -64l-199 -175l-324 77l-323 -311l327 221l332 -93zM432 13q-28 64 -28 134t28 134q26 62 73 109q25 25 52 43l-184 49v-610h168q-20 15 -36 31q-48 48 -73 110v0zM45 -128h273v600l-273 -186v-414zM974 408v225l-177 -145
q46 -6 86 -24q50 -21 91 -56zM658 136h83v-64h-83v64zM749 421q-114 0 -194.5 -80t-80.5 -194t80.5 -194.5t194.5 -80.5t194.5 80.5t80.5 194.5t-80.5 194t-194.5 80zM901 72q21 -2 24 -26q-3 -24 -24 -24h-110v-58q-2 -21 -26 -24q-24 3 -24 24v58h-148q-24 0 -25 24
q1 24 25 26h16v85q2 24 23 26h109v62h-101q-15 -26 -41 -50q-16 -15 -32 1q-13 16 0 34q44 49 62 90q9 17 33 11q20 -9 15 -24q-1 -1 -2 -3t-1 -3q-2 -3 -4 -5h231q21 -2 23 -27q-4 -24 -24 -24h-109v-62h112q21 -2 23 -24q-2 -23 -23 -23h-112v-64h110z" />
    <glyph glyph-name="yyks" unicode="&#xe625;" 
d="M120 10q-5 7 -7 16t-2 19v501l254 198q5 7 6 13q2 7 -1 13q-2 7 -7 10l-74 65h469q29 0 49.5 -20.5t20.5 -50.5v-223l51 50v173q0 50 -36 87q-4 3 -7.5 6t-7.5 7l-10 5q-3 4 -8 5l-10 5q-4 1 -10 3t-10 2q-7 1 -11 1q-5 1 -11 1h-540l-2 -1q-2 -1 -5 -2q-2 -1 -3 -2
l-6 -7q-3 -3 -3 -6l-137 -340q-2 -5 -2 -10v-483q0 -50 35.5 -86t85.5 -36h134l19 51h-153q-29 0 -50 21q-6 7 -11 15zM247 486h427v-51h-427v51zM572 367v-51h-325v51h325zM452 247v-51h-205v51h205zM247 606h495v-51h-495v51zM494 140l319 312q8 8 19 12.5t22.5 4.5
t22.5 -4.5t20 -12.5l50 -49q17 -18 17 -42t-17 -41l-320 -313zM457 104l-51 -51l-48 -157l-8 -24l192 51l48 48zM821 -3q-22 -21 -53 -21h-119l-26 -53h145q53 0 90.5 37t37.5 88v148l-54 -51v-97q0 -30 -21 -51v0z" />
    <glyph glyph-name="ZHXX" unicode="&#xe664;" 
d="M400 832h-278q-31 0 -53 -22t-22 -53v-261q0 -31 22 -53t53 -22h352v336q0 31 -22 53t-52 22zM418 477h-259q-23 0 -39.5 16.5t-16.5 39.5v187q0 23 16.5 39.5t39.5 16.5h204q23 0 39 -16.5t16 -39.5v-243zM900 832h-278q-30 0 -52 -22t-22 -53v-336h352q31 0 53 22
t22 53v261q0 31 -22 53t-53 22zM919 533q0 -23 -16.5 -39.5t-39.5 -16.5h-259v243q0 23 16 39.5t39 16.5h204q23 0 39.5 -16.5t16.5 -39.5v-187zM47 272v-262q0 -31 22 -53t53 -22h278q30 0 52 22t22 53v336h-352q-31 0 -53 -22t-22 -52v0zM418 290v-243q0 -23 -16 -39.5
t-39 -16.5h-204q-23 0 -39.5 16.5t-16.5 39.5v187q0 23 16.5 39.5t39.5 16.5h259zM900 346h-352v-336q0 -31 22 -53t52 -22h278q31 0 53 22t22 53v262q0 30 -22 52t-53 22zM919 47q0 -23 -16.5 -39.5t-39.5 -16.5h-204q-23 0 -39 16.5t-16 39.5v243h259q23 0 39.5 -16.5
t16.5 -39.5v-187z" />
    <glyph glyph-name="xtzt" unicode="&#xe60d;" 
d="M649 95q0 8 -5 13.5t-12 5.5h-240q-7 0 -12 -5.5t-5 -13.5v-77h-172v-58h617v58h-171v77zM897 797h-771q-24 0 -40.5 -17t-16.5 -41v-539q0 -24 16.5 -41t40.5 -17h771q24 0 41 17t17 41v539q0 24 -17 41t-41 17v0zM897 219q0 -8 -5.5 -13.5t-13.5 -5.5h-732
q-8 0 -14 5.5t-6 13.5v501q0 8 6 13.5t14 5.5h732q8 0 13.5 -5.5t5.5 -13.5v-501v0zM195 490q55 1 61 3q9 2 17 8l11 9q10 8 43 41q14 14 24.5 11t15.5 -13l30 -67q7 16 27 65.5t37 91.5t18 43q3 8 11 15q4 4 13 5.5t19 -3.5q10 -7 12 -17q1 -3 3 -18q0 -2 7.5 -65
t16 -133.5t12.5 -93.5q4 12 20.5 53t30.5 77t15 37q3 8 7.5 12.5t12.5 6.5q11 2 19 -3q10 -5 12 -15l32 -84q7 6 23 30q9 12 18 14q5 1 20 0h7h11.5h12.5h10.5h4.5v-45h-30q-13 1 -18 -2q-6 -4 -8 -6q-13 -22 -32 -47q-2 -4 -13 -8q-6 -2 -12 -2t-12 3t-8 7q0 1 -7 16
t-14.5 32.5t-9.5 19.5q-4 -10 -23 -60t-34.5 -91t-15.5 -42q-6 -15 -13 -21q-9 -8 -22 -7q-14 1 -22 12q-5 7 -6 18q0 3 -2 18q-1 14 -4 36q0 4 -6.5 56.5t-13 112t-9.5 83.5l-70 -169q-3 -8 -8.5 -14t-17.5 -5q-13 0 -19 7t-9 15q-18 41 -34 78q-9 -10 -31 -30
q-10 -10 -19.5 -14t-22.5 -3h-17t-29.5 -0.5t-21.5 -0.5v43z" />
    <glyph glyph-name="beiwanglu" unicode="&#xe627;" 
d="M367 241l194 55l-139 138l-55 -193v0zM885 619l-139 137l-305 -303l139 -137l305 303v0zM844 109q0 -36 -25 -61.5t-61 -25.5h-520q-36 0 -61.5 25.5t-25.5 61.5v520q0 36 25.5 61t61.5 25h346l87 87h-462q-60 0 -102.5 -42.5t-42.5 -101.5v-578q0 -60 42.5 -102.5
t102.5 -42.5h578q60 0 102 42.5t42 102.5v462l-87 -87v-346v0v0zM949 734l-86 86q-11 11 -27 10.5t-27 -11.5l-42 -42l139 -137l42 41q11 11 11.5 27t-10.5 26v0v0zM949 734z" />
    <glyph glyph-name="SXSK" unicode="&#xe811;" 
d="M211 150q6 0 5 7q0 2 -1 7.5t-2 7.5q-3 32 40 127q46 101 52 116t5 25q-1 7 -8.5 18.5t-15.5 10.5q-11 -1 -75 -48q-1 0 -2 -1q-17 -12 -16 -24q-1 -11 5 -10q3 0 11 5l42 21h1q-42 -69 -70 -130q-9 -18 -16.5 -49.5t-5.5 -47.5q1 -8 5.5 -14t8.5 -8t14 -5.5t13 -4.5
q7 -4 10 -3v0zM438 184q52 9 92.5 49t59 90t13.5 95q-4 40 -28 45q1 1 7.5 4t6.5 5q-1 9 -16.5 19t-28.5 9q-23 -3 -64 -31.5t-66 -63.5q-25 -34 -39.5 -75t-11.5 -77q4 -31 25 -53t50 -16v0zM518 427q1 -8 6 -8q1 1 10 10.5t16 9.5q9 1 14 -7t6 -18q2 -20 -14 -54t-33 -58
l-40 -46q-8 -9 -24.5 -20t-25.5 -12t-13.5 10.5t-4.5 22.5q-2 39 23.5 85.5t79.5 84.5v0zM671 433q-25 -34 -40 -75t-11 -77q3 -31 24 -53t50 -17q52 10 93 50t59.5 90t13.5 95q-5 40 -28 44q1 2 7 4.5t6 5.5q-1 8 -16 18.5t-28 8.5q-24 -2 -64.5 -30.5t-65.5 -63.5v0z
M775 455q1 -8 5 -8q2 0 11 9.5t15 10.5q9 1 14.5 -7.5t6.5 -17.5q2 -20 -14 -54.5t-33 -58.5l-41 -45q-8 -9 -24 -20.5t-26 -12.5q-8 -1 -12.5 11t-5.5 23q-2 39 24 85t80 85v0zM231 668h523q7 0 12 5t5 12v2q0 7 -5 12t-12 5h-523q-7 0 -12 -5t-5 -12v-2q0 -7 5 -12t12 -5
v0zM508 594v2q0 7 -5 12t-12 5h-260q-7 0 -12 -5t-5 -12v-2q0 -7 5 -12t12 -5h260q7 0 12 5t5 12v0zM930 399v386q0 17 -12.5 29.5t-31.5 14.5v0h-4h-0.5h-0.5h-368h-2h-368h-1h-4v0q-19 -2 -31.5 -14.5t-12.5 -29.5v-802q0 -18 14.5 -31t34.5 -13h787v460zM882 496v-509
h-698q-17 0 -29.5 11.5t-12.5 27.5v716q0 15 11 26.5t27 12.5v0h3h0.5h0.5h327h2h327h1h3v0q16 -1 27 -12.5t11 -26.5v-246v0zM716 165l51 7q-324 -20 -549 -108l-32 -14q-14 -9 0 -15q3 -1 14.5 2.5t21.5 8l10 4.5q211 75 588 122l-104 -7v0zM820 145q-106 -7 -205 -22
t-163.5 -31t-116.5 -33t-72.5 -25.5t-23.5 -10.5q-14 -9 0 -15q3 -2 14.5 2t21.5 8.5l10 4.5q77 27 167 49.5t157 35t136 22t92 12t36 3.5v0l-104 -7l51 7v0z" />
    <glyph glyph-name="RCZB" unicode="&#xe6ef;" 
d="M804 -125l11 26l-37 61v0l29 27q6 6 6 14t-6 13h-86q-6 -5 -6 -13t6 -14l28 -27h1l-36 -61l16 -26q-93 5 -155.5 32t-62.5 63q0 49 41.5 69.5t120.5 24.5q28 41 20 72q-40 33 -56 92q-4 -1 -6 -1q-8 0 -14 5.5t-6 13.5v38q0 8 5.5 13.5t13.5 5.5q6 66 45.5 111t93.5 45
t93.5 -45t44.5 -112q4 2 7 2q8 0 14 -6t6 -14v-38q0 -8 -6 -13.5t-14 -5.5q-6 0 -12 4q-18 -72 -72 -105q-2 -27 21 -61q41 -2 69.5 -6.5t52.5 -14.5t36 -28.5t12 -45.5q0 -36 -62.5 -63t-155.5 -32zM767 622.5q0 -7.5 -5 -13t-13 -5.5t-13 5.5t-5 13t5 13t13 5.5t13 -5.5
t5 -13zM658 695.5q0 -7.5 -5.5 -13t-13 -5.5t-13 5.5t-5.5 13t5.5 13t13 5.5t13 -5.5t5.5 -13zM202.5 495q-7.5 0 -13 5.5t-5.5 13t5.5 12.5t13 5t12.5 -5t5 -12.5t-5 -13t-12.5 -5.5zM202.5 240q-7.5 0 -13 5t-5.5 13t5.5 13t13 5t12.5 -5t5 -13t-5 -13t-12.5 -5zM275 604
q-8 0 -13 5.5t-5 13t5 13t13 5.5t13 -5.5t5 -13t-5 -13t-13 -5.5zM275 130q-8 0 -13 5.5t-5 13t5 13t13 5.5t13 -5.5t5 -13t-5 -13t-13 -5.5zM403 75.5q0 -7.5 -5.5 -13t-13 -5.5t-13 5.5t-5.5 13t5.5 13t13 5.5t13 -5.5t5.5 -13zM366 695.5q0 7.5 5.5 13t13 5.5t13 -5.5
t5.5 -13t-5.5 -13t-13 -5.5t-13 5.5t-5.5 13zM530 604h37q7 0 12.5 -5t5.5 -13v-219q0 -7 -5.5 -12.5t-12.5 -5.5h-256q-7 0 -12.5 5.5t-5.5 12.5v37q0 7 5.5 12.5t12.5 5.5h201v164q0 8 5.5 13t12.5 5zM931 568q-27 0 -44 24l-2 -2q-54 86 -143 138.5t-194 56.5v-71h-36v72
q-107 -5 -197 -59t-144.5 -144.5t-58.5 -196.5h72v-37h-72q6 -125 77.5 -225t184.5 -145l-1 -2q30 -15 30 -47q0 -23 -16 -39t-39 -16l-1 -3q-2 1 -5 2t-6 2.5l-5 2.5q-4 1 -8 3q-144 61 -232.5 192.5t-88.5 292.5q0 108 41.5 206t112.5 168.5t169 112.5t205 42
q134 0 248.5 -62.5t187.5 -169.5q12 -10 16 -24l0.5 -0.5l0.5 -0.5v0q3 -10 3 -16q0 -23 -16 -39t-39 -16z" />
    <glyph glyph-name="BYLWZD" unicode="&#xe62c;" 
d="M1024 507l-516 246l-508 -252l229 -113v-266l11 -9q6 -4 15.5 -10.5t37.5 -22t58 -27t73.5 -22t86.5 -11.5h9q42 0 83.5 9.5t68.5 21.5t52 27t33.5 22t13.5 11l9 9v265zM508 688l384 -182l-384 -192l-377 187zM722 146q-19 -14 -42.5 -27.5t-71.5 -27.5t-96 -13
q-118 3 -225 74v207l221 -110l214 107v-210zM36 350h58v-221h-58v221zM702 539l-149 72l-13 -26l149 -72zM736 521l29 -15l-13 -26l-29 15z" />
    <glyph glyph-name="JXSS" unicode="&#xe724;" 
d="M909 646v0h-99v118q0 14 -9.5 23t-22.5 9h-532q-13 0 -22.5 -9t-9.5 -23v-118h-99q-13 0 -22.5 -9t-9.5 -22v-178q0 -76 54 -131h1q21 -21 55 -35.5t68 -18.5q37 -56 95.5 -92t125.5 -44v-84h-142q-13 0 -22.5 -7.5t-9.5 -20.5t9.5 -21t22.5 -8h344q13 0 22.5 8t9.5 21
t-9.5 20.5t-22.5 7.5h-142v84q67 8 126 44t95 92q33 4 67 18t55 35l1 1q55 55 55 131v178q0 13 -9.5 22t-22.5 9v0v0zM176 351v0q-35 37 -35 86v152h73v-181q1 -48 12 -87q-40 20 -50 30v0v0zM753 410v0v-2q-1 -54 -26 -103l-1 -1q-31 -58 -90.5 -95t-123.5 -37t-123.5 37
t-90.5 95l-1 1q-25 49 -26 105v329h482v-329zM883 437v0q0 -49 -35 -86l-1 -1q-11 -10 -49 -29q11 38 12 87v181h73v-152zM512 648l54 -109l119 -17l-86 -85l20 -119l-107 56l-107 -56l20 119l-86 85l119 17z" />
    <glyph glyph-name="renyuan" unicode="&#xe7e6;" 
d="M373 368v0v1q0 8 -6.5 14t-15.5 6q-57 0 -97.5 42.5t-40.5 102.5t40.5 102.5t97.5 42.5q9 0 15.5 6t6.5 14.5t-6.5 14.5t-15.5 6q-74 0 -127.5 -54.5t-53.5 -131.5q0 -50 24.5 -93t65.5 -68q-87 -29 -141.5 -106.5t-54.5 -173.5q0 -9 6 -15t14.5 -6t15 6t6.5 15
q0 105 72 180t173 75q9 0 15.5 6t6.5 14zM702 359q52 28 83.5 78.5t31.5 110.5q0 89 -65 152.5t-156.5 63.5t-156 -63.5t-64.5 -152.5q0 -61 32 -111.5t85 -78.5q-110 -33 -180.5 -124.5t-70.5 -206.5q0 -8 6.5 -14t15 -6t15 6t6.5 14q0 126 91 215.5t219 89.5h4h6
q129 0 220 -89.5t91 -215.5q0 -8 6.5 -14t15 -6t15 6t6.5 14q0 117 -72 208.5t-184 123.5zM596 374q-74 0 -126.5 51t-52.5 123t52.5 123.5t126.5 51.5t126.5 -51.5t52.5 -123.5t-52.5 -123t-126.5 -51z" />
    <glyph glyph-name="JGALK" unicode="&#xe70a;" 
d="M834 448v243h-296v79h-260l-88 -76v-246h-63v-343q0 -43 31.5 -74t75.5 -31h557q44 0 75.5 31t31.5 74v343h-64zM783 640v-192h-47v192h47zM685 640v-192h-49v192h49zM538 640h47v-192h-47v192zM241 670l1 1h55v48h189v-271h-245v222zM847 105q0 -22 -16.5 -38t-39.5 -16
h-557q-23 0 -39.5 16t-16.5 38v292h669v-292zM354 144h318v160h-318v-160zM405 253h215v-58h-215v58z" />
  </font>
</defs>
</svg>
